<?xml version="1.0" standalone="no"?>
<!DOCTYPE svg PUBLIC "-//W3C//DTD SVG 1.1//EN" "http://www.w3.org/Graphics/SVG/1.1/DTD/svg11.dtd"><svg t="1663743777549"
  class="icon" viewBox="0 0 1024 1024" version="1.1" xmlns="http://www.w3.org/2000/svg" p-id="2359"
  xmlns:xlink="http://www.w3.org/1999/xlink" width="400" height="400">
  <path
    d="M775.168 181.4528l-108.3392-63.8976c-17.408-10.24-36.352-15.1552-55.0912-15.1552-38.0928 0-75.1616 20.1728-95.6416 56.2176L321.9456 502.1696c-30.208 53.4528-54.784 148.1728-54.4768 210.5344 0 0-5.5296 186.5728 28.9792 206.9504 2.2528 1.3312 5.3248 1.9456 9.0112 1.9456 42.496 0 167.1168-85.2992 167.1168-85.2992 52.5312-32.8704 118.5792-103.424 148.992-157.2864l194.1504-343.552C845.9264 281.9072 828.0064 212.5824 775.168 181.4528zM577.024 653.824c-26.8288 47.5136-87.1424 111.3088-133.3248 140.288-21.9136 14.9504-44.9536 29.3888-66.2528 41.6768l-57.4464-33.8944c-1.6384-27.648-2.2528-58.7776-1.3312-89.4976-0.3072-52.9408 22.016-139.3664 47.8208-185.0368l39.936-70.656 114.9952 67.8912 26.0096-44.1344-115.8144-68.3008 18.0224-31.9488 114.9952 67.8912 26.0096-44.1344-115.8144-68.3008 39.7312-70.2464L726.016 390.0416 577.024 653.824zM771.072 310.272l-19.968 35.2256L539.7504 220.7744l20.8896-36.864c10.5472-18.6368 30.1056-30.208 50.9952-30.208 10.24 0 20.0704 2.6624 29.0816 7.9872l108.3392 63.8976C777.5232 242.2784 787.5584 281.088 771.072 310.272z"
    p-id="2360"></path>
</svg>