<?xml version="1.0" standalone="no"?>
<!DOCTYPE svg PUBLIC "-//W3C//DTD SVG 1.1//EN" "http://www.w3.org/Graphics/SVG/1.1/DTD/svg11.dtd"><svg t="1660895617638"
  class="icon" viewBox="0 0 1024 1024" version="1.1" xmlns="http://www.w3.org/2000/svg" p-id="1542"
  xmlns:xlink="http://www.w3.org/1999/xlink" width="200" height="200">
  <defs>
    <style type="text/css">
      @font-face {
        font-family: feedback-iconfont;
        src: url("//at.alicdn.com/t/font_1031158_u69w8yhxdu.woff2?t=1630033759944") format("woff2"), url("//at.alicdn.com/t/font_1031158_u69w8yhxdu.woff?t=1630033759944") format("woff"), url("//at.alicdn.com/t/font_1031158_u69w8yhxdu.ttf?t=1630033759944") format("truetype");
      }
    </style>
  </defs>
  <path
    d="M360.46 224.442c31.4-168.59 272.512-168.59 303.912 0 1.834 9.96 12.104 15.804 21.512 12.486 161.776-57.166 281.71 152.266 151.99 263.554-7.678 6.57-7.678 18.466 0 25.036 129.72 111.288 9.786 320.72-151.99 263.554-9.408-3.32-19.68 2.526-21.512 12.486-31.4 168.59-272.51 168.59-303.912 0-1.832-9.96-12.104-15.804-21.51-12.486C177.172 846.24 57.24 636.806 186.96 525.52c7.678-6.57 7.678-18.466 0-25.036-129.72-111.288-9.788-320.72 151.99-263.554 9.406 3.32 19.678-2.526 21.51-12.486z m235.958 12.658c-17.36-93.234-150.642-93.234-168.002 0-9.65 51.666-63.01 82.548-112.464 65.05-89.256-31.54-155.932 84.104-84.034 145.8 39.872 34.168 39.872 95.932 0 130.1-71.9 61.696-5.222 177.34 84.034 145.8 49.454-17.5 102.814 13.384 112.464 65.05 17.36 93.234 150.64 93.234 168 0 9.65-51.666 63.012-82.548 112.464-65.05 89.26 31.54 155.934-84.104 84.036-145.8-39.874-34.168-39.874-95.932 0-130.1 71.898-61.696 5.222-177.34-84.036-145.8-49.452 17.5-102.814-13.384-112.462-65.05z"
    fill="" p-id="1543"></path>
  <path
    d="M512.416 374.67c76.324 0 138.192 61.938 138.192 138.33 0 76.392-61.868 138.33-138.192 138.33-76.324 0-138.192-61.938-138.192-138.33 0-76.392 61.868-138.33 138.192-138.33z m0 69.164c-38.144 0-69.096 30.952-69.096 69.166s30.952 69.166 69.096 69.166c38.146 0 69.096-30.952 69.096-69.166s-30.95-69.166-69.096-69.166z"
    fill="" p-id="1544"></path>
</svg>