<svg xmlns:xlink="http://www.w3.org/1999/xlink" xmlns="http://www.w3.org/2000/svg" version="1.1" viewBox="0 0 1024 1024" height="1024px" width="1024px">
    <title>暂无相关信息</title>
    <defs>
        <linearGradient id="linearGradient-1" y2="-0.0579832828%" x2="50%" y1="100.122278%" x1="50%">
            <stop offset="0%" stop-opacity="0.1" stop-color="#FFFFFF"></stop>
            <stop offset="100%" stop-color="#D9E9FF"></stop>
        </linearGradient>
        <linearGradient id="linearGradient-2" y2="0.00649473815%" x2="50.0843871%" y1="100%" x1="50.0843871%">
            <stop offset="0%" stop-opacity="0.1" stop-color="#FFFFFF"></stop>
            <stop offset="14%" stop-opacity="0.27" stop-color="#F8FBFF"></stop>
            <stop offset="37%" stop-opacity="0.52" stop-color="#EDF5FF"></stop>
            <stop offset="58%" stop-opacity="0.73" stop-color="#E4F0FF"></stop>
            <stop offset="76%" stop-opacity="0.88" stop-color="#DEECFF"></stop>
            <stop offset="91%" stop-opacity="0.97" stop-color="#DAEAFF"></stop>
            <stop offset="100%" stop-color="#D9E9FF"></stop>
        </linearGradient>
        <linearGradient id="linearGradient-3" y2="-0.0811277354%" x2="50.0045895%" y1="99.9311993%" x1="50.0045895%">
            <stop offset="0%" stop-opacity="0.1" stop-color="#FFFFFF"></stop>
            <stop offset="9%" stop-opacity="0.13" stop-color="#FEFEFF"></stop>
            <stop offset="23%" stop-opacity="0.21" stop-color="#FBFCFF"></stop>
            <stop offset="40%" stop-opacity="0.33" stop-color="#F5F9FF"></stop>
            <stop offset="59%" stop-opacity="0.51" stop-color="#EEF5FF"></stop>
            <stop offset="79%" stop-opacity="0.74" stop-color="#E4EFFF"></stop>
            <stop offset="100%" stop-color="#D9E9FF"></stop>
        </linearGradient>
        <linearGradient id="linearGradient-4" y2="0%" x2="50%" y1="100%" x1="50%">
            <stop offset="0%" stop-opacity="0.1" stop-color="#FFFFFF"></stop>
            <stop offset="13%" stop-opacity="0.19" stop-color="#FBFDFF"></stop>
            <stop offset="41%" stop-opacity="0.43" stop-color="#F1F7FF"></stop>
            <stop offset="81%" stop-opacity="0.82" stop-color="#E1EEFF"></stop>
            <stop offset="100%" stop-color="#D9E9FF"></stop>
        </linearGradient>
        <linearGradient id="linearGradient-5" y2="0%" x2="50%" y1="100%" x1="50%">
            <stop offset="0%" stop-color="#FFFFFF"></stop>
            <stop offset="100%" stop-color="#D9E9FF"></stop>
        </linearGradient>
        <linearGradient id="linearGradient-6" y2="50.0060613%" x2="100%" y1="50.0060613%" x1="0%">
            <stop offset="0%" stop-color="#E0E7FF"></stop>
            <stop offset="33%" stop-color="#CCDFFB"></stop>
            <stop offset="71%" stop-color="#BBD9F7"></stop>
            <stop offset="100%" stop-color="#B5D7F6"></stop>
        </linearGradient>
        <linearGradient id="linearGradient-7" y2="50%" x2="100%" y1="50%" x1="0%">
            <stop offset="0%" stop-color="#EEF6FF"></stop>
            <stop offset="100%" stop-color="#D2E6FE"></stop>
        </linearGradient>
        <linearGradient id="linearGradient-8" y2="-1361.69233%" x2="-1298.12563%" y1="-1361.69233%" x1="-1198.12563%">
            <stop offset="0%" stop-color="#ECF5FF"></stop>
            <stop offset="24.839494%" stop-color="#F9FCFF"></stop>
            <stop offset="45%" stop-color="#DAEAFF"></stop>
            <stop offset="74.7030722%" stop-color="#C7DFFF"></stop>
            <stop offset="100%" stop-color="#C0DBFF"></stop>
        </linearGradient>
        <linearGradient id="linearGradient-9" y2="50%" x2="-14.8903051%" y1="50%" x1="100%">
            <stop offset="0%" stop-color="#FFFFFF"></stop>
            <stop offset="6%" stop-color="#F9FCFF"></stop>
            <stop offset="67.4804304%" stop-color="#DAEAFF"></stop>
            <stop offset="84.9696706%" stop-color="#C7DFFF"></stop>
            <stop offset="100%" stop-color="#C0DBFF"></stop>
        </linearGradient>
        <linearGradient id="linearGradient-10" y2="45.8848302%" x2="106.883829%" y1="56.9855846%" x1="28.6970471%">
            <stop offset="0%" stop-color="#D7E8FF"></stop>
            <stop offset="100%" stop-color="#EAF3FF"></stop>
        </linearGradient>
        <linearGradient id="linearGradient-11" y2="-4054.70568%" x2="-1316.74401%" y1="-4054.70568%" x1="-1416.74401%">
            <stop offset="0%" stop-color="#CBE2FC"></stop>
            <stop offset="4%" stop-color="#FCFDFF"></stop>
            <stop offset="35%" stop-color="#E9F3FF"></stop>
            <stop offset="66%" stop-color="#DEECFF"></stop>
            <stop offset="100%" stop-color="#DAEAFF"></stop>
        </linearGradient>
    </defs>
    <g fill-rule="evenodd" fill="none" stroke-width="1" stroke="none" id="暂无相关信息">
        <rect height="1024" width="1024" y="0" x="0" fill="#FFFFFF"></rect>
        <g fill-rule="nonzero" id="编组">
            <rect height="1024" width="1024" y="0" x="0" opacity="0" fill="#F4F7F9" id="矩形"></rect>
            <polygon points="201.370482 594 206 642 177 638.807536" fill="#E4EFFF" id="路径"></polygon>
            <polygon points="200 594 230 631.885817 204.547188 642" fill="#F3F8FF" id="路径"></polygon>
            <polygon points="100.338645 606 106 667 71 662.931464" fill="#E4EFFF" id="路径"></polygon>
            <polygon points="101 606 138 654.205154 106.668679 667" fill="#F3F8FF" id="路径"></polygon>
            <polygon points="148.480744 564 158 665 94 658.708564" fill="#E4EFFF" id="路径"></polygon>
            <polygon points="147 564 214 643.373191 156.526873 665" fill="#F3F8FF" id="路径"></polygon>
            <path fill="url(#linearGradient-1)" id="路径" d="M167.226695,342.026586 C163.492711,322.014575 146.009937,307.640823 125.848517,308.006834 C115.061593,307.956383 104.650299,312.004239 96.6816737,319.346752 C92.2164177,317.314169 87.3751145,316.260961 82.4772245,316.256625 C66.9584474,316.009657 53.3722107,326.731143 49.8575212,341.998237 C37.9307461,344.661244 29.3304481,355.181909 29,367.513052 C29.4585952,382.518847 41.8172108,394.341524 56.6790254,393.99176 L160.320975,393.99176 C175.188744,394.357154 187.556538,382.525697 188,367.513052 C187.676143,355.214173 179.115739,344.711538 167.226695,342.026586 L167.226695,342.026586 Z"></path>
            <path fill="url(#linearGradient-2)" id="路径" d="M768.714498,203.095574 C763.32672,194.654828 754.21547,189.411837 744.306491,189.05019 C738.536478,180.120349 728.651433,174.817417 718.124893,175.004806 C709.6853,174.919628 701.567448,178.284389 695.603086,184.339848 C692.872347,183.456175 690.023822,183.003641 687.157409,182.998114 C673.897696,182.998114 662.946468,192.304609 661.820379,204.06619 C651.712515,206.509187 644.434781,215.463021 644,225.990693 C644,238.665795 655.457969,249 669.337032,249 L766.659384,249 C780.735511,249 791.996416,238.665795 791.996416,225.990693 C792.221633,213.943636 781.805297,204.037643 768.714498,203.095574 Z"></path>
            <path fill="url(#linearGradient-3)" id="路径" d="M949.623905,171.742852 C940.122562,152.167323 920.286816,139.710453 898.509647,139.643039 C886.380486,139.669114 874.582387,143.597854 864.863399,150.847162 C853.298536,128.313014 828.182324,116.167009 803.315887,121.083265 C778.449449,125.999521 759.857514,146.78691 757.756177,172.022955 C731.006664,180.455136 714.408255,207.114064 718.662885,234.81122 C722.917516,262.508377 746.754,282.9685 774.803609,283 L933.053129,283 C961.264971,283.053292 985.245783,262.424685 989.381219,234.545632 C993.516652,206.666579 976.554782,179.976968 949.53979,171.854893 L949.623905,171.742852 Z"></path>
            <ellipse ry="162" rx="512" cy="742" cx="512" fill="url(#linearGradient-4)" id="椭圆形"></ellipse>
            <polygon points="906 606 901.126468 670 865 659.522626" fill="#E4EFFF" id="路径"></polygon>
            <polygon points="904.847021 606 935 662.390418 900 670" fill="#F3F8FF" id="路径"></polygon>
            <polygon points="707 615 516 585.381726 516 384 707 413.618276" fill="url(#linearGradient-5)" id="路径"></polygon>
            <polygon points="349 618 515 586.84483 515 385 349 416.183417" fill="url(#linearGradient-6)" id="路径"></polygon>
            <polygon points="539 647 348 617.378112 348 416 539 445.593703" fill="url(#linearGradient-7)" id="路径"></polygon>
            <polygon points="541 647 707 615.844829 707 414 541 445.155169" fill="url(#linearGradient-8)" id="路径"></polygon>
            <polygon points="487.515411 494 297 464.176366 348.484589 415 539 444.795257" fill="url(#linearGradient-9)" id="路径"></polygon>
            <g transform="translate(357.000000, 404.000000)" id="_人物">
                <path fill="url(#linearGradient-10)" id="路径" d="M120.665306,25.3037695 L136,34.0366457 C136,34.0366457 104.872653,33.6982953 91.5502041,44.9970228 C78.2277551,56.2957502 66.5706122,80.8846579 23.8138775,66.2253541 C-18.9428571,51.5660503 13.5444898,35.8280432 29.9477551,38.58012 C46.3510204,41.3321969 68.7216326,35.5237934 79.9069388,23.9208164 C91.092245,12.3178391 116.835102,22.247443 120.665306,25.3037695 Z"></path>
                <path fill="#143E81" id="路径" d="M76.5069388,9.48278511 C76.5069388,9.48278511 62.9485713,9.71788716 53.7477551,22.1644658 C51.1387755,25.8292918 49.612245,28.1941416 48.3771429,30.102617 C47.1420408,32.0110924 43.7004083,35.3716687 38.6489796,31.2504683 C33.5975509,27.1292677 20.955102,16.5081873 20.955102,16.5081873 L14.2938775,25.4558943 C14.2938775,25.4558943 36.2759184,49.5607684 45.2408163,48.4267468 C54.2057142,47.2788955 64.2391837,48.1916448 75.8130612,33.9195678 C87.3869388,19.6336615 90.3706122,16.2039376 90.3706122,16.2039376 L76.5069388,9.48278511 Z"></path>
                <path fill="#003A8C" id="路径" d="M17.6938775,9.93915967 L1.44326531,31.7345018 C1.44326531,31.7345018 7.18857142,37.6535414 13.322449,28.8717886 C19.4563265,20.090036 22.7869388,14.862473 22.7869388,14.862473 L17.6938775,9.93915967 Z"></path>
                <polygon points="16.5836735 8.44557022 8.57632654 17.4209364 10.075102 19.0666507 0.0832653062 30.8079232 1.3877551 32.1355581 19.5395918 11.2391357" fill="#001529" id="路径"></polygon>
                <path fill="#3E65A3" id="路径" d="M77.1453062,10.1880912 C77.1453062,10.1880912 66.7787755,13.2444178 60.4367346,25.7601441 C54.1085713,38.2896999 53.1371429,42.9640816 46.1289796,39.5066988 C39.1346938,36.0493157 26.2563266,29.6324129 26.2563266,29.6324129 L20.5804082,39.6035055 C20.5804082,39.6035055 45.9208163,60.0158943 55.7738775,55.5351261 C65.6269388,51.0543578 96.032653,30.5866507 96.032653,30.5866507 C96.032653,30.5866507 98.1836734,22.9527491 97.8228571,22.5931813 C97.4759184,22.2612725 77.1453062,10.1880912 77.1453062,10.1880912 Z"></path>
                <path fill="#003A8C" id="路径" d="M22.2595918,24.5708042 L6.00897959,46.3661464 C6.00897959,46.3661464 11.7542857,52.2851861 17.8881633,43.5034334 C24.0220408,34.7216806 27.352653,29.4941176 27.352653,29.4941176 L22.2595918,24.5708042 Z"></path>
                <polygon points="21.1493878 23.0772148 13.1420408 32.0525811 14.6408163 33.6982953 4.66285713 45.4395678 5.96734695 46.7672029 24.1053062 25.8707803" fill="#001529" id="路径"></polygon>
                <path fill="#53A4FC" id="路径" d="M136,34.0366457 C136,34.0366457 130.991554,-1 102.68,0.0233853539 C74.3684465,1.04677071 68.3330612,4.89138056 67.7502041,8.00302521 C67.3477551,10.105114 69.7902041,10.8242497 69.7902041,10.8242497 C69.7902041,10.8242497 89.607347,18.4028331 92.7714287,32.5642737 C93.2848979,34.9014646 95.0195918,34.1961585 99.9183674,32.2600239 C104.817143,30.3238895 112.241633,28.0005283 121.789388,29.6739016 C127.819588,30.4420544 136,34.0366457 136,34.0366457 Z"></path>
            </g>
            <polygon points="592.591647 494 759 462.896721 707.408351 414 541 445.103277" fill="url(#linearGradient-11)" id="路径"></polygon>
        </g>
    </g>
</svg>