<?xml version="1.0" standalone="no"?>
<!DOCTYPE svg PUBLIC "-//W3C//DTD SVG 1.1//EN" "http://www.w3.org/Graphics/SVG/1.1/DTD/svg11.dtd"><svg t="1660895597772"
  class="icon" viewBox="0 0 1024 1024" version="1.1" xmlns="http://www.w3.org/2000/svg" p-id="1397"
  xmlns:xlink="http://www.w3.org/1999/xlink" width="200" height="200">
  <defs>
    <style type="text/css">
      @font-face {
        font-family: feedback-iconfont;
        src: url("//at.alicdn.com/t/font_1031158_u69w8yhxdu.woff2?t=1630033759944") format("woff2"), url("//at.alicdn.com/t/font_1031158_u69w8yhxdu.woff?t=1630033759944") format("woff"), url("//at.alicdn.com/t/font_1031158_u69w8yhxdu.ttf?t=1630033759944") format("truetype");
      }
    </style>
  </defs>
  <path
    d="M513 98C854.684 98 928 171.248 928 513S854.684 928 513 928C171.316 928 98 854.752 98 513S171.316 98 513 98z m0 69.166c-83.692 0-146.634 4.6-194.012 15.148-46.688 10.376-74.354 25.592-92.684 43.92-18.33 18.364-33.546 46.032-43.92 92.754-10.72 47.482-15.218 110.148-15.218 194.012s4.496 146.53 15.218 194.012c10.374 46.722 25.59 74.39 43.92 92.754 18.33 18.328 45.996 33.544 92.684 43.92 47.38 10.548 110.32 15.148 194.012 15.148 83.692 0 146.634-4.6 194.012-15.148 46.688-10.376 74.354-25.592 92.684-43.92 18.328-18.364 33.546-46.032 43.92-92.754 10.72-47.482 15.218-110.148 15.218-194.012s-4.496-146.53-15.218-194.012c-10.374-46.722-25.592-74.39-43.92-92.752-18.33-18.33-45.996-33.546-92.684-43.92-47.38-10.55-110.32-15.15-194.012-15.15z"
    fill="" p-id="1398"></path>
  <path
    d="M337.662 594.928c-6.916 17.74-26.974 26.42-44.958 19.4-17.638-7.02-26.284-27.112-19.366-44.888l32.162 12.726c32.162 12.728 32.162 12.762 32.162 12.762z"
    fill="" p-id="1399"></path>
  <path
    d="M305.5 582.166l32.162 12.728v-0.346c0.346-0.346 0.346-0.9 0.692-1.626 0.692-1.486 1.73-3.734 3.112-6.57 2.42-5.74 6.226-13.8 11.068-22.964 10.374-18.78 23.86-40.394 39.424-56.51 16.6-16.772 29.742-22.132 39.08-21.51 8.992 0.588 27.666 7.09 52.912 46.41 30.434 47.138 65.708 75.22 106.17 77.882 39.772 2.594 71.588-20.128 93.376-42.26 22.134-22.79 39.424-50.872 50.838-72.106a417.58 417.58 0 0 0 13.486-27.148c1.384-3.46 2.768-6.226 3.46-8.232 0.346-0.968 0.69-1.764 1.036-2.316l0.346-0.692v-0.312s0-0.034-32.162-12.76l32.162 12.726c6.918-17.776-1.728-37.868-19.366-44.89-17.984-7.02-38.04 1.66-44.96 19.402v0.38c-0.344 0.346-0.344 0.9-0.69 1.626-0.692 1.488-1.73 3.734-3.112 6.57-2.42 5.74-6.226 13.8-11.068 22.964-10.374 18.78-23.86 40.394-39.424 56.51-16.6 16.772-29.742 22.132-39.08 21.51-8.992-0.588-27.666-7.09-52.912-46.41-30.434-47.138-65.708-75.22-106.17-77.882-39.772-2.594-71.588 20.128-93.376 42.26-22.134 22.79-39.424 50.872-50.838 72.106a417.58 417.58 0 0 0-13.486 27.148c-1.384 3.46-2.768 6.226-3.46 8.232-0.344 0.968-0.69 1.764-1.036 2.352l-0.346 0.656v0.312s0 0.034 32.162 12.76z"
    fill="" p-id="1400"></path>
</svg>