<?xml version="1.0" standalone="no"?>
<!DOCTYPE svg PUBLIC "-//W3C//DTD SVG 1.1//EN" "http://www.w3.org/Graphics/SVG/1.1/DTD/svg11.dtd"><svg t="1660895652881"
  class="icon" viewBox="0 0 1024 1024" version="1.1" xmlns="http://www.w3.org/2000/svg" p-id="1684"
  xmlns:xlink="http://www.w3.org/1999/xlink" width="200" height="200">
  <defs>
    <style type="text/css">
      @font-face {
        font-family: feedback-iconfont;
        src: url("//at.alicdn.com/t/font_1031158_u69w8yhxdu.woff2?t=1630033759944") format("woff2"), url("//at.alicdn.com/t/font_1031158_u69w8yhxdu.woff?t=1630033759944") format("woff"), url("//at.alicdn.com/t/font_1031158_u69w8yhxdu.ttf?t=1630033759944") format("truetype");
      }
    </style>
  </defs>
  <path
    d="M659.942 98.082c47.032-1.798 93.028 25.972 115.506 66.744 60.174 109.212 158.388 300.834 150.088 340.846-11.066 52.324-220.29 481.77-432.628 415.372-65.014-20.404-297.408-152.164-346.516-200.2-158.734-154.72 104.784-544.916 143.518-582.16 28.358-27.184 246.92-35.9 370.032-40.6z m54.986 100.082c-10.72-19.192-33.2-31.678-52.22-30.952-61.9 2.352-145.592 5.672-217.524 11.656-35.964 3.042-67.436 6.604-90.606 10.754-9.682 1.696-16.6 3.286-21.786 4.67-2.766 3.664-6.572 8.54-11.066 14.524-9.338 13.072-21.442 30.57-34.238 51.46-26.282 41.912-56.024 95.654-79.54 152.128-24.208 57.2-40.116 113.292-42.536 160.946-2.42 47.1 8.646 77.914 29.05 97.972 7.26 6.814 25.59 20.82 55.678 40.324 28.012 18.5 62.594 39.39 97.868 59.654 73.66 42.156 141.442 76.152 165.65 83.726 26.974 8.402 58.444 3.354 97.524-21.788 40.114-25.52 80.576-67.47 118.272-117.166 37.348-49.072 69.164-102.19 92.334-146.25 11.412-21.96 20.75-41.186 26.976-55.988 3.458-7.78 5.532-13.42 6.916-17.084-1.038-5.222-3.46-12.76-6.916-22.756-7.954-22.27-20.06-51.112-35.276-83.586-30.086-64.634-68.82-138.364-98.56-192.244z"
    fill="" p-id="1685"></path>
  <path
    d="M494.292 308.76c28.704-50.11 93.028-67.264 143.172-38.352 49.8 28.944 67.09 93.026 38.04 143.136-28.702 50.11-93.026 67.264-142.826 38.352-50.144-28.946-67.436-93.026-38.386-143.136z m59.828 34.58c-10.03 17.052-4.15 38.804 13.14 48.66 16.946 9.82 38.734 3.976 48.416-13.04 10.03-17.048 4.15-38.8-12.794-48.62-17.292-9.858-39.08-4.012-48.762 13z"
    fill="" p-id="1686"></path>
  <path
    d="M306.854 563.494c-16.6-9.648-38.04-3.908-47.724 12.796-9.682 16.704-3.804 38.04 12.796 47.69l242.08 139.712c16.598 9.65 38.04 3.942 47.722-12.76 9.338-16.704 3.804-38.076-12.796-47.724l-242.078-139.714z"
    fill="" p-id="1687"></path>
</svg>