<?xml version="1.0" standalone="no"?>
<!DOCTYPE svg PUBLIC "-//W3C//DTD SVG 1.1//EN" "http://www.w3.org/Graphics/SVG/1.1/DTD/svg11.dtd"><svg t="1663743925616"
  class="icon" viewBox="0 0 1024 1024" version="1.1" xmlns="http://www.w3.org/2000/svg" p-id="4332"
  xmlns:xlink="http://www.w3.org/1999/xlink" width="400" height="400">
  <path
    d="M170.7008 850.6368c0 60.3136 47.8208 109.3632 106.7008 109.3632l469.2992 0c58.88 0 106.7008-49.0496 106.7008-109.3632L853.4016 260.9152 170.7008 260.9152 170.7008 850.6368zM213.2992 304.64l597.2992 0 0 545.8944c0 36.1472-28.672 65.6384-64 65.6384L277.2992 916.1728c-35.2256 0-64-29.4912-64-65.6384L213.2992 304.64z"
    p-id="4333"></path>
  <path
    d="M874.7008 151.552 149.2992 151.552c-11.776 0-21.2992 9.6256-21.2992 21.2992l0 1.1264c0 11.776 9.6256 21.2992 21.2992 21.2992l725.2992 0c11.776 0 21.2992-9.6256 21.2992-21.2992l0-1.1264C896 161.0752 886.3744 151.552 874.7008 151.552z"
    p-id="4334"></path>
  <path
    d="M405.2992 107.7248l213.2992 0c11.776 0 21.2992-9.6256 21.2992-21.2992l0-1.1264c0-11.776-9.6256-21.2992-21.2992-21.2992L405.2992 64c-11.776 0-21.2992 9.6256-21.2992 21.2992l0 1.1264C384 98.2016 393.6256 107.7248 405.2992 107.7248z"
    p-id="4335"></path>
  <path
    d="M298.7008 784.9984c11.776 0 21.2992-9.6256 21.2992-21.2992L320 456.192c0-11.776-9.6256-21.2992-21.2992-21.2992-11.776 0-21.2992 9.6256-21.2992 21.2992l0 307.4048C277.2992 775.3728 286.9248 784.9984 298.7008 784.9984z"
    p-id="4336"></path>
  <path
    d="M384 784.9984c11.776 0 21.2992-9.6256 21.2992-21.2992L405.2992 456.192c0-11.776-9.6256-21.2992-21.2992-21.2992-11.776 0-21.2992 9.6256-21.2992 21.2992l0 307.4048C362.7008 775.3728 372.224 784.9984 384 784.9984z"
    p-id="4337"></path>
  <path
    d="M640 784.9984c11.776 0 21.2992-9.6256 21.2992-21.2992L661.2992 456.192c0-11.776-9.6256-21.2992-21.2992-21.2992-11.776 0-21.2992 9.6256-21.2992 21.2992l0 307.4048C618.7008 775.3728 628.224 784.9984 640 784.9984z"
    p-id="4338"></path>
  <path
    d="M725.2992 784.9984c11.776 0 21.2992-9.6256 21.2992-21.2992L746.5984 456.192c0-11.776-9.6256-21.2992-21.2992-21.2992-11.776 0-21.2992 9.6256-21.2992 21.2992l0 307.4048C704 775.3728 713.6256 784.9984 725.2992 784.9984z"
    p-id="4339"></path>
</svg>