<?xml version="1.0" standalone="no"?>
<!DOCTYPE svg PUBLIC "-//W3C//DTD SVG 1.1//EN" "http://www.w3.org/Graphics/SVG/1.1/DTD/svg11.dtd"><svg t="1660893766295"
  class="icon" viewBox="0 0 1024 1024" version="1.1" xmlns="http://www.w3.org/2000/svg" p-id="1255"
  data-spm-anchor-id="a313x.7781069.0.i0" xmlns:xlink="http://www.w3.org/1999/xlink" width="200" height="200">
  <defs>
    <style type="text/css">
      @font-face {
        font-family: feedback-iconfont;
        src: url("//at.alicdn.com/t/font_1031158_u69w8yhxdu.woff2?t=1630033759944") format("woff2"), url("//at.alicdn.com/t/font_1031158_u69w8yhxdu.woff?t=1630033759944") format("woff"), url("//at.alicdn.com/t/font_1031158_u69w8yhxdu.ttf?t=1630033759944") format("truetype");
      }
    </style>
  </defs>
  <path
    d="M675.92 466.352c13.492-13.49 13.492-35.42 0-48.91-13.488-13.526-35.626-13.526-49.118 0l-148.392 148.496-44.622-44.726c-13.49-13.524-35.628-13.524-49.12 0-13.49 13.492-13.49 35.42 0 48.912l69.182 69.18c13.49 13.526 35.628 13.526 49.12 0l172.952-172.952z"
    fill="" p-id="1256"></path>
  <path
    d="M420.298 142.1c46.35-61.466 139.054-61.466 185.404 0l39.088 51.194 63.646-8.75c76.1-10.516 141.476 54.826 131.1 131.27l-8.648 63.612 51.194 38.846c61.224 46.592 61.224 139.02 0 185.612l-51.194 38.846 8.646 63.612c10.378 76.444-55 141.786-131.098 131.27l-63.646-8.75-39.088 51.194c-46.35 61.466-139.054 61.466-185.404 0l-39.088-51.194-63.646 8.75c-76.1 10.516-141.476-54.826-131.1-131.27l8.648-63.612-51.194-38.846c-61.224-46.594-61.224-139.02 0-185.612l51.194-38.846-8.646-63.612c-10.378-76.444 55-141.786 131.098-131.27l63.646 8.75z m123.488 46.906c-15.22-20.48-46.352-20.48-61.572 0L443.128 240.2c-16.95 22.38-44.622 33.828-72.296 30.024l-63.646-8.752c-25.596-3.494-47.388 18.264-43.93 43.758l8.994 63.646c3.804 27.776-7.61 55.484-30.094 72.432l-51.194 38.846c-20.408 15.532-20.408 46.316 0 61.848l51.194 38.844c22.484 16.95 33.9 44.658 30.094 72.434l-8.994 63.646c-3.46 25.494 18.334 47.25 43.93 43.758l63.646-8.752c27.674-3.806 55.346 7.644 72.296 30.024l39.086 51.194c15.22 20.478 46.352 20.478 61.572 0l39.086-51.194c16.95-22.38 44.622-33.83 72.296-30.024l63.646 8.752c25.596 3.492 47.388-18.264 43.93-43.758l-8.994-63.646c-3.804-27.776 7.61-55.484 30.094-72.434l51.194-38.844c20.408-15.532 20.408-46.316 0-61.848l-51.194-38.846c-22.484-16.948-33.9-44.656-30.094-72.432l8.994-63.646c3.46-25.494-18.334-47.252-43.93-43.758l-63.646 8.752c-27.674 3.804-55.346-7.644-72.296-30.024z"
    fill="" p-id="1257"></path>
</svg>