<svg xmlns:xlink="http://www.w3.org/1999/xlink" xmlns="http://www.w3.org/2000/svg" version="1.1" viewBox="0 0 1024 1024" height="1024px" width="1024px">
    <title>暂无数据</title>
    <defs>
        <linearGradient id="linearGradient-1" y2="-0.0579832828%" x2="50%" y1="100.122278%" x1="50%">
            <stop offset="0%" stop-opacity="0.1" stop-color="#FFFFFF"></stop>
            <stop offset="100%" stop-color="#D9E9FF"></stop>
        </linearGradient>
        <linearGradient id="linearGradient-2" y2="0.00649473815%" x2="50.0843871%" y1="100%" x1="50.0843871%">
            <stop offset="0%" stop-opacity="0.1" stop-color="#FFFFFF"></stop>
            <stop offset="14%" stop-opacity="0.27" stop-color="#F8FBFF"></stop>
            <stop offset="37%" stop-opacity="0.52" stop-color="#EDF5FF"></stop>
            <stop offset="58%" stop-opacity="0.73" stop-color="#E4F0FF"></stop>
            <stop offset="76%" stop-opacity="0.88" stop-color="#DEECFF"></stop>
            <stop offset="91%" stop-opacity="0.97" stop-color="#DAEAFF"></stop>
            <stop offset="100%" stop-color="#D9E9FF"></stop>
        </linearGradient>
        <linearGradient id="linearGradient-3" y2="-0.0811277354%" x2="50.0045895%" y1="99.9311993%" x1="50.0045895%">
            <stop offset="0%" stop-opacity="0.1" stop-color="#FFFFFF"></stop>
            <stop offset="9%" stop-opacity="0.13" stop-color="#FEFEFF"></stop>
            <stop offset="23%" stop-opacity="0.21" stop-color="#FBFCFF"></stop>
            <stop offset="40%" stop-opacity="0.33" stop-color="#F5F9FF"></stop>
            <stop offset="59%" stop-opacity="0.51" stop-color="#EEF5FF"></stop>
            <stop offset="79%" stop-opacity="0.74" stop-color="#E4EFFF"></stop>
            <stop offset="100%" stop-color="#D9E9FF"></stop>
        </linearGradient>
        <linearGradient id="linearGradient-4" y2="0%" x2="50%" y1="100%" x1="50%">
            <stop offset="0%" stop-opacity="0.1" stop-color="#FFFFFF"></stop>
            <stop offset="13%" stop-opacity="0.19" stop-color="#FBFDFF"></stop>
            <stop offset="41%" stop-opacity="0.43" stop-color="#F1F7FF"></stop>
            <stop offset="81%" stop-opacity="0.82" stop-color="#E1EEFF"></stop>
            <stop offset="100%" stop-color="#D9E9FF"></stop>
        </linearGradient>
        <linearGradient id="linearGradient-5" y2="33.1348898%" x2="26.4788126%" y1="54.1023093%" x1="36.9834497%">
            <stop offset="0%" stop-opacity="0" stop-color="#FFFFFF"></stop>
            <stop offset="100%" stop-color="#C1DDFD"></stop>
        </linearGradient>
        <linearGradient id="linearGradient-6" y2="95.8519161%" x2="169.600204%" y1="95.8519161%" x1="0%">
            <stop offset="0%" stop-color="#F6FBFF"></stop>
            <stop offset="100%" stop-color="#ACD2FA"></stop>
        </linearGradient>
        <linearGradient id="linearGradient-7" y2="46.8956483%" x2="71.9746699%" y1="50%" x1="34.4993212%">
            <stop offset="0%" stop-color="#EDF5FF"></stop>
            <stop offset="100%" stop-color="#3396FB"></stop>
        </linearGradient>
        <linearGradient id="linearGradient-8" y2="45.4068216%" x2="35.2501698%" y1="54.5931784%" x1="64.7498302%">
            <stop offset="0%" stop-color="#D9E9FF"></stop>
            <stop offset="31%" stop-color="#DFECFF"></stop>
            <stop offset="73%" stop-color="#F0F6FF"></stop>
            <stop offset="100%" stop-color="#FFFFFF"></stop>
        </linearGradient>
        <linearGradient id="linearGradient-9" y2="43.2352824%" x2="34.3612335%" y1="56.7647176%" x1="65.6073002%">
            <stop offset="0%" stop-color="#D9E9FF"></stop>
            <stop offset="31%" stop-color="#DFECFF"></stop>
            <stop offset="73%" stop-color="#F0F6FF"></stop>
            <stop offset="100%" stop-color="#FFFFFF"></stop>
        </linearGradient>
        <linearGradient id="linearGradient-10" y2="50%" x2="120.309922%" y1="52.1238751%" x1="6.98906497%">
            <stop offset="0%" stop-color="#F5FBFF"></stop>
            <stop offset="100%" stop-color="#89BEF8"></stop>
        </linearGradient>
        <linearGradient id="linearGradient-11" y2="50%" x2="100%" y1="50%" x1="24.2813054%">
            <stop offset="0%" stop-color="#EDF7FF"></stop>
            <stop offset="100%" stop-color="#3396FB"></stop>
        </linearGradient>
        <linearGradient id="linearGradient-12" y2="41.166166%" x2="35.2501698%" y1="58.833834%" x1="64.7498302%">
            <stop offset="0%" stop-color="#D9E9FF"></stop>
            <stop offset="31%" stop-color="#DFECFF"></stop>
            <stop offset="73%" stop-color="#F0F6FF"></stop>
            <stop offset="100%" stop-color="#FFFFFF"></stop>
        </linearGradient>
        <linearGradient id="linearGradient-13" y2="39.0903884%" x2="34.3612335%" y1="60.9096116%" x1="65.6073002%">
            <stop offset="0%" stop-color="#D9E9FF"></stop>
            <stop offset="31%" stop-color="#DFECFF"></stop>
            <stop offset="73%" stop-color="#F0F6FF"></stop>
            <stop offset="100%" stop-color="#FFFFFF"></stop>
        </linearGradient>
        <linearGradient id="linearGradient-14" y2="41.3217188%" x2="34.3612335%" y1="58.6782812%" x1="65.6073002%">
            <stop offset="0%" stop-color="#D9E9FF"></stop>
            <stop offset="31%" stop-color="#DFECFF"></stop>
            <stop offset="73%" stop-color="#F0F6FF"></stop>
            <stop offset="100%" stop-color="#FFFFFF"></stop>
        </linearGradient>
        <linearGradient id="linearGradient-15" y2="50.0082504%" x2="30.9743362%" y1="50.0082504%" x1="100.018043%">
            <stop offset="0%" stop-color="#3E65A3"></stop>
            <stop offset="100%" stop-color="#143E81"></stop>
        </linearGradient>
        <linearGradient id="linearGradient-16" y2="33.6592836%" x2="47.753857%" y1="89.8334601%" x1="85.7353055%">
            <stop offset="0%" stop-color="#3E65A3"></stop>
            <stop offset="100%" stop-color="#143E81"></stop>
        </linearGradient>
        <linearGradient id="linearGradient-17" y2="52.0632389%" x2="50.0231547%" y1="100.015849%" x1="50.0231547%">
            <stop offset="0%" stop-color="#40A9FF"></stop>
            <stop offset="100%" stop-color="#53A4FC"></stop>
        </linearGradient>
        <linearGradient id="linearGradient-18" y2="52.0238731%" x2="50.0046264%" y1="99.9681814%" x1="50.0046264%">
            <stop offset="0%" stop-color="#40A9FF"></stop>
            <stop offset="100%" stop-color="#53A4FC"></stop>
        </linearGradient>
        <linearGradient id="linearGradient-19" y2="49.9578313%" x2="78.6789936%" y1="49.9578313%" x1="-0.0127226463%">
            <stop offset="0%" stop-color="#003A8C"></stop>
            <stop offset="100%" stop-color="#272F7C"></stop>
        </linearGradient>
        <linearGradient id="linearGradient-20" y2="49.9653979%" x2="21.3115669%" y1="49.9653979%" x1="99.9825034%">
            <stop offset="0%" stop-color="#003A8C"></stop>
            <stop offset="100%" stop-color="#272F7C"></stop>
        </linearGradient>
        <linearGradient id="linearGradient-21" y2="52.0508348%" x2="50.0042822%" y1="100.003698%" x1="50.0042822%">
            <stop offset="0%" stop-color="#40A9FF"></stop>
            <stop offset="100%" stop-color="#53A4FC"></stop>
        </linearGradient>
        <linearGradient id="linearGradient-22" y2="50.0474607%" x2="78.6804243%" y1="50.0474607%" x1="-0.00952533676%">
            <stop offset="0%" stop-color="#001A3F"></stop>
            <stop offset="100%" stop-color="#003A8C"></stop>
        </linearGradient>
    </defs>
    <g fill-rule="evenodd" fill="none" stroke-width="1" stroke="none" id="暂无数据">
        <rect height="1024" width="1024" y="0" x="0" fill="#FFFFFF"></rect>
        <rect height="1024" width="1024" y="0" x="0" opacity="0" fill-rule="nonzero" fill="#F4F7F9" id="矩形"></rect>
        <polygon points="201.370482 594 206 642 177 638.807536" fill-rule="nonzero" fill="#E4EFFF" id="路径"></polygon>
        <polygon points="200 594 230 631.885817 204.547188 642" fill-rule="nonzero" fill="#F3F8FF" id="路径"></polygon>
        <polygon points="100.338645 606 106 667 71 662.931464" fill-rule="nonzero" fill="#E4EFFF" id="路径"></polygon>
        <polygon points="101 606 138 654.205154 106.668679 667" fill-rule="nonzero" fill="#F3F8FF" id="路径"></polygon>
        <polygon points="148.480744 564 158 665 94 658.708564" fill-rule="nonzero" fill="#E4EFFF" id="路径"></polygon>
        <polygon points="147 564 214 643.373191 156.526873 665" fill-rule="nonzero" fill="#F3F8FF" id="路径"></polygon>
        <path fill-rule="nonzero" fill="url(#linearGradient-1)" id="路径" d="M167.226695,342.026586 C163.492711,322.014575 146.009937,307.640823 125.848517,308.006834 C115.061593,307.956383 104.650299,312.004239 96.6816737,319.346752 C92.2164177,317.314169 87.3751145,316.260961 82.4772245,316.256625 C66.9584474,316.009657 53.3722107,326.731143 49.8575212,341.998237 C37.9307461,344.661244 29.3304481,355.181909 29,367.513052 C29.4585952,382.518847 41.8172108,394.341524 56.6790254,393.99176 L160.320975,393.99176 C175.188744,394.357154 187.556538,382.525697 188,367.513052 C187.676143,355.214173 179.115739,344.711538 167.226695,342.026586 L167.226695,342.026586 Z"></path>
        <path fill-rule="nonzero" fill="url(#linearGradient-2)" id="路径" d="M768.714498,203.095574 C763.32672,194.654828 754.21547,189.411837 744.306491,189.05019 C738.536478,180.120349 728.651433,174.817417 718.124893,175.004806 C709.6853,174.919628 701.567448,178.284389 695.603086,184.339848 C692.872347,183.456175 690.023822,183.003641 687.157409,182.998114 C673.897696,182.998114 662.946468,192.304609 661.820379,204.06619 C651.712515,206.509187 644.434781,215.463021 644,225.990693 C644,238.665795 655.457969,249 669.337032,249 L766.659384,249 C780.735511,249 791.996416,238.665795 791.996416,225.990693 C792.221633,213.943636 781.805297,204.037643 768.714498,203.095574 Z"></path>
        <path fill-rule="nonzero" fill="url(#linearGradient-3)" id="路径" d="M949.623905,171.742852 C940.122562,152.167323 920.286816,139.710453 898.509647,139.643039 C886.380486,139.669114 874.582387,143.597854 864.863399,150.847162 C853.298536,128.313014 828.182324,116.167009 803.315887,121.083265 C778.449449,125.999521 759.857514,146.78691 757.756177,172.022955 C731.006664,180.455136 714.408255,207.114064 718.662885,234.81122 C722.917516,262.508377 746.754,282.9685 774.803609,283 L933.053129,283 C961.264971,283.053292 985.245783,262.424685 989.381219,234.545632 C993.516652,206.666579 976.554782,179.976968 949.53979,171.854893 L949.623905,171.742852 Z"></path>
        <ellipse ry="162" rx="512" cy="742" cx="512" fill-rule="nonzero" fill="url(#linearGradient-4)" id="椭圆形"></ellipse>
        <g fill-rule="nonzero" transform="translate(290.000000, 304.000000)" id="编组-16">
            <polygon points="401.327204 366.634114 594.157066 503.191162 255.04862 612.351295 102.525208 314.405409 327.255937 322.50454" opacity="0.385356358" fill="url(#linearGradient-5)" id="路径"></polygon>
            <path fill="url(#linearGradient-6)" id="路径" d="M87.927704,75.4691737 L0.408233198,75.4691737 L0.408233198,37.0517423 C0.408233198,37.0517423 -1.79959925,0.106880026 51.4860649,0.106880026 C102.936003,0.106880026 87.927704,75.4691737 87.927704,75.4691737 Z"></path>
            <path fill="url(#linearGradient-7)" id="路径" d="M49.4454827,0.106880026 C49.4454827,0.106880026 83.0593519,4.21582324 83.0593519,47.6091136 C83.0593519,91.0024042 83.0593519,299.002811 83.0593519,299.002811 C83.0593519,299.002811 82.3348614,331.446836 117.297782,331.446836 C152.248212,331.446836 218.051951,331.446836 218.051951,331.446836 L269.041105,180.924133 L269.041105,58.1546096 C269.041105,58.1546096 272.900892,0.118755584 220.612652,0.118755584 C173.733108,0.106880026 49.4454827,0.106880026 49.4454827,0.106880026 Z"></path>
            <rect rx="5.23516484" height="22.3353299" width="124.216708" y="38.3976389" x="113.028674" fill="url(#linearGradient-8)" id="矩形"></rect>
            <rect rx="5.23516484" height="22.3353299" width="89.3730356" y="82.599463" x="113.028674" fill="url(#linearGradient-9)" id="矩形"></rect>
            <rect rx="5.23516484" height="22.3353299" width="89.3730356" y="126.801287" x="113.028674" fill="url(#linearGradient-9)" id="矩形"></rect>
            <path fill="url(#linearGradient-10)" id="路径" d="M130.484909,331.446836 L286.165913,331.446836 L268.926407,205.945934 C268.926407,205.945934 247.245662,175.4495 204.609784,175.4495 C156.58187,175.4495 158.921338,220.897263 158.921338,223.248623 C158.921338,225.599984 158.921338,301.54418 158.921338,301.54418 C158.921338,301.54418 158.596064,331.446836 130.484909,331.446836 Z"></path>
            <path fill="url(#linearGradient-11)" id="路径" d="M401.327204,366.634114 L258.187137,366.634114 L258.187137,225.493104 C258.187137,225.493104 261.685365,175.4495 205.126486,175.4495 C269.294016,175.4495 338.808839,175.4495 338.808839,175.4495 C338.808839,175.4495 401.327204,173.881926 401.327204,237.998067 C401.327204,302.114206 401.327204,366.634114 401.327204,366.634114 Z"></path>
            <rect rx="5.23516484" height="22.3353299" width="89.5698925" y="219.719823" x="285.770609" fill="url(#linearGradient-12)" id="矩形"></rect>
            <rect rx="5.23516484" height="22.3353299" width="70.3763441" y="263.921646" x="285.770609" fill="url(#linearGradient-13)" id="矩形"></rect>
            <rect rx="5.23516484" height="22.3353299" width="78.90681" y="308.12347" x="285.770609" fill="url(#linearGradient-14)" id="矩形"></rect>
        </g>
        <g fill-rule="nonzero" transform="translate(554.000000, 387.000000)" id="编组">
            <path fill="#FECCA9" id="路径" d="M59.7088948,116.729057 C59.7088948,116.729057 58.7256064,118.050566 61.5849056,122.836226 C57.2377359,124.324528 51.5061994,122.553962 51.5061994,122.553962 L51.8167116,114.586415 L59.7088948,116.729057 Z"></path>
            <path fill="#003A8C" id="路径" d="M48.9185983,127.339623 L74.1994609,128.622642 C74.1994609,128.622642 75.8684636,121.168302 65.9061994,120.963019 C63.8878706,120.924528 62.3353099,118.589434 60.6792452,118.576604 C56.7072776,121.784151 50.147709,120.898868 50.147709,120.898868 L48.9185983,127.339623 Z"></path>
            <polygon points="48.3234501 128.956226 59.3983828 130.508679 59.9159029 128.50717 74.1606469 130.149434 74.535849 128.455849 48.9832884 125.261132" fill="#001529" id="路径"></polygon>
            <path fill="#FECCA9" id="路径" d="M72.3881402,120.36 C72.3881402,120.36 70.6932615,122.310189 74.7169811,126.223396 C70.9132076,128.750943 66.0097035,128.070943 66.0097035,128.070943 L64.2113207,120.295849 L72.3881402,120.36 Z"></path>
            <path fill="#003A8C" id="路径" d="M63.6032344,133.433962 L88.897035,132.843774 C88.897035,132.843774 89.9450134,125.273962 79.9956874,125.82566 C77.9902965,125.941132 76.2436659,123.721509 74.5876011,123.824151 C70.9002696,127.326793 64.2889487,126.916226 64.2889487,126.916226 L63.6032344,133.433962 Z"></path>
            <polygon points="63.1504044 135.089057 74.3159029 135.807547 74.6652291 133.780377 88.9876011 134.357736 89.2334233 132.651321 63.5126685 131.355472" fill="#001529" id="路径"></polygon>
            <path fill="url(#linearGradient-15)" id="路径" d="M36.9250674,74.2226415 C36.9250674,74.2226415 69.0242589,65.6264152 72.077628,72.9909433 C75.1309974,80.3554716 68.8560647,92.2490567 65.7380053,101.166038 C62.6199461,110.083019 60.2652291,118.063396 60.2652291,118.063396 L50.2382749,117.139623 L53.9514825,86.0007547 C53.9514825,86.0007547 51.7908356,80.4709433 44.2609164,79.8550943 C36.7439353,79.2520754 36.9250674,74.2226415 36.9250674,74.2226415 Z"></path>
            <path fill="url(#linearGradient-16)" id="路径" d="M25.3455525,69.7962264 C25.3455525,69.7962264 58.0140161,65.5750943 61.8307277,70.8354717 C65.6474394,76.095849 73.2032344,122.489811 73.2032344,122.489811 L64.8064691,125.81283 C64.8064691,125.81283 51.9331536,91.184151 48.8927224,89.5932075 C46.2921834,88.2332075 38.6716982,89.695849 31.4393531,91.8256604 C24.2070081,93.9554717 11.8770889,96.4830189 6.28787061,82.96 C8.82371968,68.4105659 25.3455525,69.7962264 25.3455525,69.7962264 Z"></path>
            <path fill="#FECCA9" id="路径" d="M30.0032344,11.0083019 C30.0032344,11.0083019 34.2857143,16.589434 31.2840971,25.4294341 C30.5207548,27.1230189 29.0458221,30.0611321 24.9832884,27.8415095 C24.6339624,27.7645284 24.4010781,28.2649057 24.3105122,28.7396226 C24.2199461,29.2143396 23.1202157,37.3615095 23.1202157,37.3615095 L11.4242587,37.4256604 C11.4242587,37.4256604 16.845283,17.2437736 16.741779,13.2792453 C16.702965,11.2392453 18.8894879,7.67245283 23.2237196,7.48 C27.5579516,7.28754716 30.0032344,11.0083019 30.0032344,11.0083019 Z"></path>
            <path fill="#003A8C" id="路径" d="M26.8463612,3.52830189 C26.8463612,3.52830189 28.0366577,1.30867925 31.3099731,2.92528301 C34.5832884,4.54188679 33.0177898,7.40301886 32.9013478,8.12150943 C32.7849056,8.84 33.2377359,9.39169811 34.2080863,9.00679246 C35.1784367,8.60905659 36.8991913,8.33962264 38.0894878,10.5207547 C39.2797843,12.7018868 36.7568732,18.4883019 32.9272236,17.9109434 C29.1105122,17.3464151 27.1827493,15.3962264 25.8113207,14.010566 C24.4269542,12.6249057 21.774663,10.9826415 21.3865229,12.6120755 C20.9983827,14.2415094 21.1018868,17.6671698 20.3385445,17.1667925 C19.6269542,16.6920755 20.0409703,13.189434 17.9191375,13.1766038 C15.7973046,13.1637736 15.9525606,16.2045283 17.3498652,17.8339623 C17.9450135,18.5267925 17.9061995,18.3984906 17.6991914,19.1041509 C17.4921833,19.8098113 17.5439353,20.2973585 16.780593,21.1313207 C16.0043127,21.9781132 15.6938005,22.4271699 15.0598383,21.2083019 C14.425876,19.9766038 13.2355795,17.6543396 13.8695418,12.714717 C14.1283019,11.3290566 13.6884097,11.2392453 12.9638814,10.4566038 C12.2393531,9.67396226 11.1913747,8.44226415 12.2522911,6.67169811 C13.3132075,4.88830189 14.33531,5.11924528 15.6549865,5.17056604 C16.9876011,5.23471699 16.922911,4.7471698 16.9358491,3.96452831 C16.9487871,3.18188679 17.9191375,0.166792453 20.5455526,0.230943396 C23.1719676,0.282264152 24.2975741,1.75773585 24.9703504,3.00226415 C25.6431268,4.24679246 26.419407,3.93886793 26.8463612,3.52830189 Z"></path>
            <path fill="#FECCA9" id="路径" d="M37.4037735,49.8196226 C37.4037735,49.8196226 37.8436659,54.6566037 39.0339624,55.7984905 C40.2242589,56.9403774 48.7245283,63.984151 53.2657682,66.1139622 C52.3601079,68.7313207 51.7778976,69.0649057 51.7778976,69.0649057 C51.7778976,69.0649057 39.3056604,65.6264152 35.2560647,61.6105659 C33.8458221,60.0581132 31.2711589,56.6581132 30.5466306,51.615849 C33.7681941,48.3954716 37.4037735,49.8196226 37.4037735,49.8196226 Z"></path>
            <path fill="url(#linearGradient-17)" id="路径" d="M39.0210242,51.9879246 L28.8,57.7615095 C28.8,57.7615095 20.7525606,39.6452831 27.0016172,33.9871699 C28.9811321,32.3320754 34.3762804,34.7184905 36.3557951,40.7486793 C38.3482481,46.7660378 39.0210242,51.9879246 39.0210242,51.9879246 Z"></path>
            <path fill="url(#linearGradient-18)" id="路径" d="M2.72991913,35.6422642 C2.72991913,35.6422642 7.09002696,27.3411321 13.8566038,27.88 C14.7881402,32.5501886 20.1444744,32.7554717 23.9094339,31.4852831 C26.6652291,31.8573585 28.2177898,32.0369811 30.1067385,34.7954717 C31.9956874,37.5539622 31.8016172,38.208302 33.0954178,44.0203774 C34.0269542,49.9479246 31.6851752,54.9773585 32.6943396,60.391698 C33.6905661,65.8188679 38.8398921,66.6528301 36.1617251,68.9109433 C33.483558,71.1690567 16.677089,72.4264152 8.95309974,83.7298114 C6.57250674,87.2196226 4.69649595,79.3290567 4.65768195,73.375849 C4.61886793,67.4098114 7.74986522,52.0264152 2.72991913,35.6422642 Z"></path>
            <polygon points="64.819407 68.1539622 52.761186 67.8332075 29.2559066 69.1754323 48.2199461 72.0928301" fill="url(#linearGradient-19)" id="路径"></polygon>
            <polygon points="33.0959479 69.0649057 48.2199461 71.0279246 48.2199461 72.0928301 32.3514409 69.9630189" fill="url(#linearGradient-20)" id="路径"></polygon>
            <path fill="#FECCA9" id="路径" d="M11.7735849,49.9735848 C11.7735849,49.9735848 14.6070081,58.9932075 15.4350404,59.2754716 C16.2630728,59.5577358 29.8221024,65.2030189 31.4264151,65.28 C33.0307277,65.3569811 40.1336927,62.008302 42.8506738,69.0520754 C43.0188679,69.7833963 43.1870621,70.2837736 41.1946091,70.1169811 C39.2150944,69.9501886 36.1876011,69.2060378 34.0916443,69.8603774 C31.9956874,70.5147169 31.1159029,69.3728301 29.2140161,69.3728301 C27.3121294,69.3728301 12.122911,68.064151 10.1433962,66.1781132 C8.1638814,64.2920754 5.77035041,60.9305659 4.52830189,53.7328301 C9.57412399,50.5509433 11.7735849,49.9735848 11.7735849,49.9735848 Z"></path>
            <path fill="url(#linearGradient-21)" id="路径" d="M14.7493261,51.615849 L4.52830189,57.3894341 C4.52830189,57.3894341 -3.51913746,39.2732075 2.72991913,33.6150943 C4.70943396,31.96 10.1045822,34.3464152 12.084097,40.3766037 C14.0636119,46.3939622 14.7493261,51.615849 14.7493261,51.615849 Z"></path>
            <path fill="url(#linearGradient-22)" id="路径" d="M74.8204851,49.5370859 L53.9385446,49.9479246 C53.3433962,49.9607547 52.8258761,50.3584905 52.6706199,50.935849 L47.5083557,70.2452831 C47.2754717,71.1305659 48,71.9901886 48.9185983,71.9132075 L69.0501347,70.2196226 C69.5935309,70.168302 70.0463612,69.8090567 70.2145554,69.3086793 L76.1272236,51.2822642 C76.4118598,50.4098114 75.7390836,49.5245283 74.8204851,49.5370859 Z"></path>
        </g>
        <polygon points="906 606 901.126468 670 865 659.522626" fill-rule="nonzero" fill="#E4EFFF" id="路径"></polygon>
        <polygon points="904.847021 606 935 662.390418 900 670" fill-rule="nonzero" fill="#F3F8FF" id="路径"></polygon>
    </g>
</svg>